<svg xmlns="http://www.w3.org/2000/svg" viewBox="0 0 48 48"><defs><style>.cls-1{fill:#201602;}</style></defs><title>Asset 13ldpi</title><g id="Layer_2" data-name="Layer 2"><g id="layer_1-2" data-name="layer 1"><path class="cls-1" d="M24,48H0V46H24A22.11,22.11,0,0,0,45.12,30.18l1.92.56A24.12,24.12,0,0,1,24,48Z"/><path class="cls-1" d="M2.88,17.82,1,17.26A24.12,24.12,0,0,1,24,0H48V2H24A22.11,22.11,0,0,0,2.88,17.82Z"/><path class="cls-1" d="M48,37H46V31.62l-4.55,2.27-.9-1.78,6-3A1,1,0,0,1,48,30Z"/><path class="cls-1" d="M1,19a1,1,0,0,1-.53-.15A1,1,0,0,1,0,18V11H2v5.38l4.55-2.27.9,1.78-6,3A1,1,0,0,1,1,19Z"/><path class="cls-1" d="M36,29A12,12,0,1,1,48,17,12,12,0,0,1,36,29ZM36,7A10,10,0,1,0,46,17,10,10,0,0,0,36,7Z"/><path class="cls-1" d="M36,20c-2.21,0-4-2.24-4-5a3.71,3.71,0,0,1,4-4,3.71,3.71,0,0,1,4,4C40,17.76,38.21,20,36,20Zm0-7c-1.79,0-2,1.14-2,2,0,1.6.93,3,2,3s2-1.4,2-3C38,14.14,37.79,13,36,13Z"/><path class="cls-1" d="M43,26H41V21.69a1,1,0,0,0-.83-1L36,20l-4.17.7a1,1,0,0,0-.83,1V26H29V21.69a3,3,0,0,1,2.51-3L35.84,18a1.71,1.71,0,0,1,.32,0l4.33.73a3,3,0,0,1,2.51,3Z"/><path class="cls-1" d="M12,43A12,12,0,1,1,24,31,12,12,0,0,1,12,43Zm0-22A10,10,0,1,0,22,31,10,10,0,0,0,12,21Z"/><path class="cls-1" d="M12,33c-2.21,0-4-2.24-4-5a3.71,3.71,0,0,1,4-4,3.71,3.71,0,0,1,4,4C16,30.76,14.21,33,12,33Zm0-7c-1.79,0-2,1.14-2,2,0,1.6.93,3,2,3s2-1.4,2-3C14,27.14,13.79,26,12,26Z"/><path class="cls-1" d="M19,40H17V34.69a1,1,0,0,0-.83-1L12,33l-4.17.7a1,1,0,0,0-.83,1V40H5V34.69a3,3,0,0,1,2.51-2.95L11.84,31a1.71,1.71,0,0,1,.32,0l4.33.73A3,3,0,0,1,19,34.69Z"/><rect class="cls-1" x="11" y="35" width="2" height="2"/><rect class="cls-1" x="11" y="38" width="2" height="2"/></g></g></svg>